#!OML:ASF F:\VICON\USERDATA\INSTALL\rory3\rory3.ASF
:FULLY-SPECIFIED
:DEGREES
524
root 0.0860271 15.0885 -32.6367 -147.97 -11.2254 -184.747
lowerback -16.0447 -0.0885254 0.446773
upperback -18.8665 -5.25202 -2.19333
thorax -12.3106 -4.97431 -2.48968
lowerneck -1.92108 7.96619 4.72668
upperneck 30.6531 6.61735 3.56552
head 10.1419 2.64004 0.819633
rclavicle 2.06488e-014 9.93923e-017
rhumerus -33.2318 -39.6657 24.3481
rradius 16.1497
rwrist 31.6131
rhand 2.26812 2.74925
rfingers 7.12502
rthumb 27.761 -25.2209
lclavicle 2.06488e-014 9.93923e-017
lhumerus 63.0611 -5.68947 36.5411
lradius 33.3964
lwrist -20.8526
lhand 0.939911 21.4639
lfingers 7.12502
lthumb 26.4903 49.6322
rfemur -189.81 -187.042 -148.257
rtibia 28.2552
rfoot -33.1455 -30.8253
rtoes -3.88307
lfemur -68.4607 8.68876 -47.8223
ltibia 56.4326
lfoot -29.2912 19.4787
ltoes 17.8442
525
root 0.116707 15.1139 -32.6267 -148.004 -9.81739 -186.03
lowerback -17.2267 -0.77447 -1.91552
upperback -16.4252 -4.87744 -2.17139
thorax -8.43616 -4.11406 -1.48601
lowerneck -8.25886 8.17794 3.74712
upperneck 30.5474 7.50252 3.87742
head 11.2608 3.32836 1.48353
rclavicle -6.53505e-015 -2.14687e-014
rhumerus -34.5905 -40.8922 23.9584
rradius 16.2379
rwrist 27.7749
rhand 1.84211 1.64858
rfingers 7.12502
rthumb 27.3536 -26.3865
lclavicle -6.53505e-015 -2.14687e-014
lhumerus 66.5206 -2.05993 37.2178
lradius 33.0732
lwrist -21.2073
lhand 0.93028 20.9713
lfingers 7.12502
lthumb 26.4811 49.141
rfemur -189.734 -188.652 -149.936
rtibia 28.4813
rfoot -33.6474 -31.3974
rtoes -2.4513
lfemur -68.0002 9.23315 -49.4585
ltibia 55.9948
lfoot -29.4423 19.2786
ltoes 18.285
526
root 0.093267 15.098 -32.6628 -147.455 -10.7095 -185.436
lowerback -17.5944 -0.252969 -0.762224
upperback -17.6571 -4.87492 -2.33754
thorax -9.84072 -4.47679 -2.21345
lowerneck -5.60063 8.80152 4.13875
upperneck 30.5233 8.01997 4.51481
head 10.7209 3.56833 1.57242
rclavicle -1.80894e-014 -1.2921e-015
rhumerus -31.8655 -30.8082 19.3186
rradius 17.0366
rwrist 19.2532
rhand 1.50381 0.506039
rfingers 7.12502
rthumb 27.03 -27.5797
lclavicle -1.80894e-014 -1.2921e-015
lhumerus 65.3225 -4.09466 37.0518
lradius 33.3367
lwrist -21.0372
lhand 0.954636 20.8182
lfingers 7.12502
lthumb 26.5044 48.9843
rfemur -190.326 -187.485 -149.147
rtibia 28.5501
rfoot -33.0637 -30.7452
rtoes -1.29987
lfemur -68.45 8.67442 -48.7455
ltibia 56.0128
lfoot -29.4039 19.0699
ltoes 18.0682
527
root 0.102225 15.1173 -32.6176 -147.926 -10.0209 -186.115
lowerback -15.9216 -0.321266 -1.52666
upperback -17.3749 -4.726 -2.65585
thorax -10.3704 -4.23281 -2.02588
lowerneck -8.08873 9.43528 4.16113
upperneck 31.0386 8.89054 4.98022
head 11.3843 4.12004 1.99036
rclavicle 3.60297e-014 4.81059e-014
rhumerus -42.003 -50.3653 34.3823
rradius 15.5394
rwrist 41.2825
rhand 3.04894 5.3763
rfingers 7.12502
rthumb 28.5073 -22.4711
lclavicle 3.60297e-014 4.81059e-014
lhumerus 65.8719 -3.50294 36.0547
lradius 33.9316
lwrist -20.5882
lhand 1.0009 20.9224
lfingers 7.12502
lthumb 26.5487 49.0819
rfemur -190.002 -188.27 -149.994
rtibia 28.8543
rfoot -34.4519 -30.707
rtoes -1.30642
lfemur -67.7327 8.98505 -49.5406
ltibia 55.5888
lfoot -29.1326 19.6211
ltoes 17.7361
528
root 0.0911405 15.1089 -32.6273 -147.883 -10.702 -185.413
lowerback -17.2431 -0.281304 -0.76263
upperback -17.0536 -4.60999 -2.43233
thorax -9.27448 -4.22065 -2.32744
lowerneck -4.70765 9.68893 5.70163
upperneck 28.1578 9.84742 3.42075
head 9.83811 4.62733 1.0521
rclavicle 4.02539e-015 -8.54774e-015
rhumerus -35.0917 -38.4464 23.6203
rradius 16.5276
rwrist 24.7197
rhand 0.210063 -0.581981
rfingers 7.12502
rthumb 25.7916 -28.8537
lclavicle 4.02539e-015 -8.54774e-015
lhumerus 66.1319 -3.30304 36.242
lradius 34.3174
lwrist -20.7784
lhand 1.33185 20.8515
lfingers 7.12502
lthumb 26.8654 48.9627
rfemur -189.979 -187.828 -149.041
rtibia 28.5551
rfoot -33.904 -30.6879
rtoes 0.38406
lfemur -68.0421 8.74668 -48.6377
ltibia 55.8518
lfoot -29.0914 19.8536
ltoes 17.2868
529
root 0.102295 15.1243 -32.6112 -147.791 -9.98042 -186.051
lowerback -16.9049 -0.319563 -1.82875
upperback -16.8272 -4.46582 -2.60774
thorax -9.13281 -4.0042 -1.90818
lowerneck -5.705 10.1984 5.73977
upperneck 28.0015 10.5942 3.68851
head 9.96452 5.07198 1.27467
rclavicle 2.96686e-014 3.79679e-014
rhumerus -36.1005 -38.8104 24.5265
rradius 16.3886
rwrist 25.8973
rhand 1.39376 1.46044
rfingers 7.12502
rthumb 26.9247 -26.6416
lclavicle 2.96686e-014 3.79679e-014
lhumerus 66.7443 -2.82741 36.6093
lradius 34.5753
lwrist -21.3408
lhand 1.56537 20.8314
lfingers 7.12502
lthumb 27.0889 48.908
rfemur -190.015 -188.569 -149.96
rtibia 28.4493
rfoot -34.1564 -31.0297
rtoes -0.277074
lfemur -67.9836 8.92775 -49.4961
ltibia 55.751
lfoot -29.2488 19.688
ltoes 17.9844
